<?xml version="1.0" standalone="no"?>
<!DOCTYPE svg PUBLIC "-//W3C//DTD SVG 20010904//EN"
 "http://www.w3.org/TR/2001/REC-SVG-20010904/DTD/svg10.dtd">
<svg version="1.0" xmlns="http://www.w3.org/2000/svg"
 width="500.000000pt" height="500.000000pt" viewBox="0 0 500.000000 500.000000"
 preserveAspectRatio="xMidYMid meet">
<metadata>
Created by potrace 1.14, written by Peter Selinger 2001-2017
</metadata>
<g transform="translate(0.000000,500.000000) scale(0.100000,-0.100000)"
fill="#000000" stroke="none">
<path d="M2439 3705 c-115 -85 -187 -190 -215 -313 -14 -64 -20 -74 -64 -111
-97 -82 -167 -225 -172 -352 -2 -54 0 -63 22 -79 88 -66 279 -90 412 -50 l76
22 58 -20 c121 -41 242 -36 356 15 87 39 91 45 78 144 -14 119 -60 211 -147
297 -61 60 -69 73 -80 126 -26 123 -103 242 -207 318 -48 35 -72 35 -117 3z
m121 -161 c46 -53 103 -179 72 -160 -28 17 -151 26 -215 16 -37 -7 -70 -10
-73 -8 -11 11 61 130 101 167 52 47 61 46 115 -15z m63 -278 c37 -15 38 -17
31 -53 -15 -82 -69 -174 -132 -228 l-33 -28 -44 43 c-56 55 -102 141 -110 207
l-7 51 33 10 c63 20 74 21 149 18 42 -2 92 -11 113 -20z m-362 -203 c15 -34
46 -82 70 -108 23 -25 40 -48 37 -50 -12 -13 -129 -16 -178 -6 -86 18 -92 26
-74 94 16 60 44 117 78 155 l21 23 9 -23 c5 -13 21 -51 37 -85z m536 79 c52
-71 93 -193 73 -217 -17 -21 -139 -39 -205 -30 l-57 7 30 31 c42 44 97 137
112 192 7 25 16 45 19 45 4 0 16 -13 28 -28z"/>
<path d="M1962 3530 c-67 -41 -78 -131 -22 -193 26 -29 33 -32 90 -32 57 0 64
2 91 33 51 57 34 163 -31 197 -40 21 -89 19 -128 -5z"/>
<path d="M2433 2735 c-43 -18 -73 -69 -73 -123 0 -79 86 -141 166 -120 50 13
94 70 94 121 0 103 -93 163 -187 122z"/>
<path d="M2612 2126 c3 -174 5 -196 22 -215 24 -26 66 -28 66 -3 0 9 -9 23
-20 30 -19 11 -20 23 -20 197 l0 185 -26 0 -26 0 4 -194z"/>
<path d="M2980 2244 c0 -69 -2 -75 -17 -68 -10 4 -43 9 -73 11 -42 3 -63 -1
-88 -17 -93 -58 -98 -206 -8 -265 26 -17 133 -22 201 -9 l35 6 0 209 0 209
-25 0 c-24 0 -25 -2 -25 -76z m-29 -109 l30 -16 -3 -92 -3 -92 -66 -3 c-61 -3
-68 -1 -97 27 -28 25 -32 36 -32 78 1 93 85 142 171 98z"/>
<path d="M3097 2303 c-15 -15 -6 -52 14 -58 28 -9 53 16 44 44 -6 20 -43 29
-58 14z"/>
<path d="M1540 2061 c0 -193 -1 -210 -20 -234 -11 -13 -31 -28 -45 -31 -14 -4
-25 -13 -25 -22 0 -44 87 -16 120 38 18 30 20 51 20 246 l0 212 -25 0 -25 0 0
-209z"/>
<path d="M1724 2172 c-61 -39 -76 -69 -72 -144 5 -100 52 -141 162 -140 80 1
116 14 109 41 -4 16 -9 18 -30 10 -13 -5 -48 -9 -78 -9 -43 0 -60 5 -84 26
-19 16 -31 35 -31 50 l0 24 120 0 120 0 0 45 c0 35 -6 52 -29 77 -25 28 -35
32 -92 35 -50 3 -71 0 -95 -15z m131 -28 c14 -6 45 -53 45 -69 0 -3 -45 -5
-100 -5 -112 0 -123 9 -69 54 30 26 85 35 124 20z"/>
<path d="M2000 2040 c0 -143 1 -150 20 -150 19 0 20 7 20 99 l0 99 35 31 c39
34 78 40 112 16 18 -13 22 -12 37 4 16 18 16 20 -6 35 -31 22 -96 20 -141 -4
l-37 -20 0 20 c0 13 -7 20 -20 20 -19 0 -20 -7 -20 -150z"/>
<path d="M2317 2178 c-32 -12 -34 -45 -2 -40 88 14 126 14 150 -2 15 -10 25
-26 25 -39 0 -21 -6 -24 -92 -35 -74 -9 -97 -16 -110 -33 -25 -30 -23 -82 5
-115 20 -23 30 -27 80 -26 39 0 69 7 92 21 34 19 34 19 40 0 5 -14 15 -19 41
-19 39 0 47 22 14 40 -17 9 -20 21 -21 88 0 93 -16 142 -49 159 -30 15 -133
16 -173 1z m173 -178 c0 -42 -48 -71 -109 -68 -50 3 -67 22 -57 61 7 28 22 33
114 36 52 1 52 1 52 -29z"/>
<path d="M3100 2041 l0 -151 25 0 26 0 -3 148 c-3 144 -3 147 -25 150 -23 3
-23 3 -23 -147z"/>
<path d="M3282 2174 c-73 -38 -101 -128 -63 -206 27 -57 66 -79 137 -79 86 0
116 9 112 34 -2 14 -9 21 -18 18 -120 -31 -200 9 -200 99 0 78 51 116 145 107
52 -5 64 -3 69 10 10 24 1 27 -77 31 -52 2 -81 -2 -105 -14z"/>
<path d="M2087 1549 c-26 -37 1 -83 45 -77 29 4 40 48 11 47 -10 0 -13 -3 -5
-6 18 -7 14 -33 -5 -33 -31 0 -45 16 -41 46 3 25 7 29 35 29 17 0 29 3 26 7
-9 16 -52 7 -66 -13z"/>
<path d="M2230 1520 l0 -50 33 1 c30 2 30 2 5 6 -35 5 -39 40 -5 46 l22 4 -22
2 c-33 2 -29 29 5 34 25 4 25 4 -5 6 l-33 1 0 -50z"/>
<path d="M2352 1518 l1 -53 4 45 4 45 39 -45 39 -45 -1 55 c-1 52 -1 53 -7 15
l-6 -40 -30 37 c-16 21 -33 38 -37 38 -5 0 -7 -24 -6 -52z"/>
<path d="M2510 1520 l0 -50 33 1 c30 2 30 2 5 6 -35 5 -39 40 -5 46 l22 4 -22
2 c-33 2 -29 29 5 34 25 4 25 4 -5 6 l-33 1 0 -50z"/>
<path d="M2630 1525 c0 -25 5 -45 10 -45 6 0 10 18 10 40 0 33 3 40 20 40 21
0 28 -26 8 -32 -7 -3 -5 -13 7 -31 10 -15 20 -25 23 -23 3 3 -1 12 -7 20 -9
10 -9 20 -2 34 13 25 -4 42 -41 42 -27 0 -28 -2 -28 -45z"/>
<path d="M2773 1520 c0 -30 2 -43 4 -27 2 15 2 39 0 55 -2 15 -4 2 -4 -28z"/>
<path d="M2862 1558 c-7 -7 -12 -24 -12 -38 0 -14 5 -31 12 -38 13 -13 54 -16
62 -4 2 4 -7 8 -21 7 -14 0 -31 8 -37 18 -15 24 4 52 37 52 14 -1 23 3 21 7
-8 12 -49 9 -62 -4z"/>
</g>
</svg>
