<?xml version="1.0" standalone="no"?>
<!DOCTYPE svg PUBLIC "-//W3C//DTD SVG 20010904//EN"
 "http://www.w3.org/TR/2001/REC-SVG-20010904/DTD/svg10.dtd">
<svg version="1.0" xmlns="http://www.w3.org/2000/svg"
 width="500.000000pt" height="500.000000pt" viewBox="0 0 500.000000 500.000000"
 preserveAspectRatio="xMidYMid meet">
<metadata>
Created by potrace 1.14, written by Peter Selinger 2001-2017
</metadata>
<g transform="translate(0.000000,500.000000) scale(0.100000,-0.100000)"
fill="#000000" stroke="none">
<path d="M2310 4219 c-193 -22 -413 -90 -603 -185 -113 -56 -305 -190 -386
-269 l-75 -73 95 0 c208 0 383 -105 528 -315 101 -147 195 -228 311 -267 104
-35 237 -22 312 31 41 30 77 81 84 120 l6 34 -33 -34 c-87 -90 -236 -113 -359
-55 -83 39 -154 110 -221 222 -76 126 -113 175 -177 232 -58 51 -155 105 -211
116 -73 15 0 40 93 32 122 -10 252 -114 349 -278 119 -203 200 -274 325 -286
69 -7 132 15 175 62 35 37 34 55 -8 142 -132 277 -364 441 -659 467 -33 3 -61
7 -63 9 -6 6 158 72 247 100 86 28 99 30 230 51 87 13 407 14 485 0 278 -47
537 -160 754 -329 225 -174 382 -377 498 -641 39 -88 88 -263 108 -380 22
-137 14 -439 -14 -541 -8 -27 -9 -26 -25 31 -10 33 -26 85 -35 116 l-19 56 25
-5 25 -5 -36 67 c-20 37 -36 68 -36 70 0 2 12 1 27 -2 30 -6 32 -14 -22 132
-51 141 -48 139 -79 55 -15 -41 -36 -95 -47 -121 -25 -60 -24 -68 6 -68 l24 0
-34 -65 c-33 -62 -34 -65 -14 -65 18 0 20 -4 14 -27 -9 -40 -19 -47 -52 -36
-28 9 -84 82 -102 133 -8 25 -7 26 19 22 l28 -4 -47 118 c-26 66 -50 125 -52
133 -3 8 -22 -37 -43 -100 -21 -63 -42 -121 -46 -129 -17 -31 -213 193 -454
519 -49 67 -92 121 -95 120 -3 0 -41 -53 -84 -117 -42 -64 -86 -128 -97 -142
-11 -14 -52 -68 -91 -120 -39 -52 -76 -99 -83 -105 -7 -5 -34 -37 -60 -70
-119 -148 -433 -466 -549 -557 -12 -9 -42 -32 -67 -52 -25 -19 -83 -61 -128
-93 l-84 -58 49 -21 c26 -12 51 -20 54 -18 3 2 45 -19 94 -47 l89 -50 206 -4
c113 -2 219 -7 235 -9 35 -6 106 -15 150 -21 42 -4 263 -35 300 -40 145 -23
440 -23 555 0 102 20 138 29 172 41 43 15 52 4 11 -13 -16 -6 -55 -23 -88 -37
-119 -50 -251 -70 -460 -71 -173 0 -333 8 -367 19 -13 5 -55 10 -178 21 -36 4
-76 9 -90 11 -26 4 -148 13 -258 18 -70 3 -86 -6 -42 -24 16 -7 39 -21 51 -31
12 -11 38 -19 58 -20 47 -1 164 -19 291 -44 470 -94 754 -93 1040 2 147 49
320 154 392 237 14 17 45 51 67 76 32 36 48 69 80 165 62 190 76 286 75 525
-1 180 -4 220 -27 331 -35 165 -73 273 -157 444 -178 360 -501 665 -872 823
-254 108 -453 151 -703 149 -77 0 -169 -4 -205 -8z m-266 -458 c143 -70 242
-186 280 -331 7 -25 10 -53 8 -62 -3 -17 -5 -17 -35 -2 -52 27 -90 73 -143
173 -37 71 -69 116 -130 178 -44 46 -76 83 -70 83 5 0 46 -18 90 -39z m842
-1062 c-59 -157 -118 -241 -213 -305 -32 -22 -60 -41 -63 -44 -10 -12 -171
-130 -176 -130 -3 0 1 6 8 14 7 7 31 35 53 62 22 26 58 66 80 89 113 116 222
238 273 307 31 42 58 75 59 74 2 -2 -8 -32 -21 -67z m110 -106 c-2 -62 -8 -90
-29 -134 -25 -52 -144 -195 -154 -185 -2 2 13 39 35 82 22 44 45 97 52 119 23
73 80 195 91 195 4 0 6 -35 5 -77z m381 -215 c37 -36 83 -78 101 -94 22 -20
29 -33 23 -43 -12 -18 -35 -4 -98 61 -89 92 -111 120 -145 182 -47 87 -46 88
5 20 26 -34 77 -90 114 -126z m247 87 c-7 -17 -20 -20 -29 -6 -3 5 3 12 12 14
10 3 19 5 20 6 1 0 0 -6 -3 -14z m-1224 -425 c-19 -16 -66 -46 -105 -67 -38
-21 -79 -43 -90 -50 -41 -25 -175 -90 -175 -85 0 8 40 40 94 74 28 18 53 35
56 38 3 3 52 27 110 53 58 26 112 52 120 57 29 19 24 9 -10 -20z"/>
<path d="M2728 3975 c-2 -3 -161 -5 -353 -5 -194 -1 -344 -5 -339 -10 5 -4 41
-17 79 -29 66 -19 93 -20 523 -18 248 0 452 4 452 7 0 3 -24 15 -54 26 -43 17
-79 22 -172 23 -65 1 -121 4 -124 6 -4 3 -9 2 -12 0z"/>
<path d="M3087 3873 c-2 -1 -553 -12 -697 -12 -94 -1 -103 -2 -89 -17 14 -13
51 -15 260 -14 134 1 300 3 369 5 69 1 175 4 235 5 109 3 110 3 75 18 -27 12
-144 24 -153 15z"/>
<path d="M2975 3780 c-60 -3 -212 -5 -337 -5 -158 0 -228 -3 -228 -11 0 -27
61 -30 520 -28 261 1 482 2 490 3 9 1 0 11 -20 24 -31 20 -47 22 -175 22 -77
0 -189 -2 -250 -5z"/>
<path d="M2497 3638 c-8 -5 -7 -11 1 -21 8 -10 32 -15 70 -15 352 -3 1025 -2
1028 1 2 2 -5 12 -17 22 -19 18 -47 19 -546 20 -288 0 -530 -3 -536 -7z"/>
<path d="M1182 3619 c-16 -6 -52 -49 -52 -63 0 -2 21 -7 47 -11 65 -9 117 -31
188 -78 64 -42 152 -129 190 -189 49 -75 190 -200 270 -241 17 -8 77 -26 134
-41 88 -22 120 -25 210 -22 101 4 139 11 206 42 37 17 100 69 70 58 -11 -3
-38 -13 -59 -21 -109 -39 -272 -23 -390 40 -71 37 -196 159 -271 262 -93 128
-250 240 -365 260 -59 11 -154 13 -178 4z"/>
<path d="M2567 3488 c-8 -5 -7 -11 1 -21 10 -11 74 -14 358 -15 310 -2 349 0
375 15 16 10 29 20 29 23 0 8 -750 6 -763 -2z"/>
<path d="M3560 3489 c0 -18 73 -40 124 -37 52 3 54 4 40 22 -11 16 -27 20 -89
21 -41 0 -75 -2 -75 -6z"/>
<path d="M3369 3408 c-73 -42 -99 -135 -58 -207 54 -95 170 -111 250 -35 129
124 -36 333 -192 242z"/>
<path d="M994 3379 c-54 -86 -154 -300 -154 -330 0 -10 -4 -21 -10 -24 -20
-12 -10 -25 13 -15 86 38 206 43 303 15 83 -24 137 -58 230 -145 97 -91 109
-101 165 -133 111 -64 218 -76 389 -44 26 5 100 34 100 39 0 2 -37 3 -83 3
-112 1 -152 9 -244 45 -84 34 -98 43 -243 162 -36 29 -76 59 -89 66 -13 8 -38
22 -55 31 -17 10 -53 26 -79 36 -87 33 -71 39 53 19 58 -9 172 -72 265 -145
155 -123 254 -158 434 -153 104 3 157 12 219 40 54 24 156 94 148 102 -2 2
-37 -7 -78 -19 -54 -17 -102 -23 -188 -25 -153 -3 -265 24 -395 96 -79 44
-113 73 -236 197 -172 173 -234 210 -361 220 l-76 6 -28 -44z m198 -109 c20
-6 47 -19 60 -30 l23 -19 -60 -1 c-33 -1 -69 -3 -80 -5 -11 -2 -36 -7 -55 -10
-19 -4 -47 -13 -62 -21 -39 -20 -36 0 5 38 57 54 101 66 169 48z"/>
<path d="M3708 3372 c-21 -2 -38 -6 -38 -10 1 -20 22 -27 87 -28 70 -1 72 -1
58 19 -14 20 -38 25 -107 19z"/>
<path d="M2650 3355 c0 -8 3 -15 8 -16 28 -3 531 -4 545 -1 9 3 17 11 17 18 0
12 -49 14 -285 14 -247 0 -285 -2 -285 -15z"/>
<path d="M2684 3251 c-16 -17 14 -21 151 -21 117 0 155 3 155 13 0 9 -37 12
-151 12 -82 0 -152 -2 -155 -4z"/>
<path d="M3050 3244 c0 -15 36 -20 108 -16 34 3 52 8 49 15 -5 17 -157 17
-157 1z"/>
<path d="M3690 3243 c0 -15 -3 -15 95 -15 99 0 97 0 93 14 -6 18 -188 19 -188
1z"/>
<path d="M2597 3155 c-4 -22 -9 -62 -12 -90 -7 -72 -50 -193 -89 -254 -106
-164 -236 -255 -516 -361 -91 -35 -183 -76 -206 -91 -99 -67 -184 -191 -203
-294 -17 -92 -10 -347 14 -460 48 -231 168 -473 309 -625 29 -31 98 -92 152
-136 42 -33 -44 16 -124 71 -185 128 -308 325 -373 600 -39 165 -47 229 -45
372 0 68 -2 123 -6 123 -9 0 -45 -122 -52 -180 -8 -58 -9 -224 -1 -275 6 -41
22 -135 29 -170 9 -48 52 -175 77 -232 55 -123 140 -232 215 -274 73 -41 242
-107 324 -127 309 -76 733 -61 955 34 l40 17 -65 13 c-205 39 -460 154 -614
278 -28 23 -62 48 -76 57 -14 9 -70 59 -125 111 -195 185 -271 250 -385 325
-141 93 -130 83 -140 127 -12 54 -5 52 140 -34 93 -55 191 -135 343 -280 55
-52 107 -102 116 -110 196 -182 438 -323 644 -375 117 -29 127 -31 234 -41 69
-6 76 -5 155 32 46 21 110 56 143 78 71 46 187 138 181 143 -2 2 -28 -6 -57
-18 -113 -44 -213 -59 -379 -55 -136 3 -169 7 -265 34 -245 68 -363 132 -686
375 -64 47 -126 92 -140 99 -13 8 -42 25 -64 39 -41 27 -141 79 -185 97 -14 5
-47 20 -75 33 -27 12 -63 25 -80 28 l-30 7 -3 89 c-10 278 109 426 418 523
239 74 397 210 489 418 38 85 53 256 33 359 l-8 40 -7 -40z m-660 -2028 c226
-158 553 -288 751 -299 70 -3 47 -18 -30 -19 -263 -3 -425 43 -614 177 -60 42
-154 137 -197 199 l-20 30 29 -26 c16 -14 53 -42 81 -62z m830 -303 c-3 -3
-12 -4 -19 -1 -8 3 -5 6 6 6 11 1 17 -2 13 -5z"/>
<path d="M2713 3147 c5 -16 199 -17 204 -1 2 7 -33 11 -102 12 -79 1 -105 -2
-102 -11z"/>
<path d="M3143 3147 c2 -7 28 -13 57 -15 46 -3 52 -1 41 12 -15 18 -104 21
-98 3z"/>
<path d="M3655 3152 c-16 -17 9 -21 135 -21 82 -1 140 3 140 8 0 5 -8 12 -18
15 -21 7 -250 5 -257 -2z"/>
<path d="M2723 3045 c6 -16 105 -14 119 2 9 12 0 13 -56 11 -39 -1 -65 -7 -63
-13z"/>
<path d="M3212 3048 c3 -9 25 -13 67 -15 84 -2 77 21 -8 25 -49 3 -62 1 -59
-10z"/>
<path d="M3565 3046 c-26 -11 0 -13 188 -13 172 0 217 2 217 13 0 18 -362 19
-405 0z"/>
<path d="M2495 3013 c-38 -51 -120 -148 -140 -165 -45 -40 -194 -133 -255
-161 -118 -54 -179 -69 -300 -74 -86 -4 -120 -9 -134 -22 -19 -17 -96 -125
-96 -136 0 -3 -10 -27 -21 -53 -20 -43 -49 -135 -49 -156 0 -4 17 14 38 42 20
27 51 61 68 75 56 47 177 105 334 160 223 79 218 77 295 129 92 63 102 73 158
141 48 60 89 131 113 200 17 49 14 54 -11 20z"/>
<path d="M1020 2985 c0 -3 17 -12 38 -20 52 -22 172 -116 233 -183 60 -65 134
-207 158 -303 18 -69 31 -97 31 -65 0 22 95 161 128 186 23 18 23 20 6 26 -82
27 -151 72 -236 155 -104 103 -145 135 -208 166 -54 27 -150 51 -150 38z"/>
<path d="M819 2963 c-11 -3 -23 -33 -39 -101 -41 -173 -54 -373 -36 -564 8
-81 51 -290 65 -316 5 -9 10 -21 11 -27 45 -197 221 -499 408 -697 71 -75 220
-203 227 -196 3 3 -6 38 -20 79 -47 137 -76 272 -90 424 -3 33 -8 83 -10 110
-3 28 -7 102 -10 165 -5 106 -7 118 -36 165 -40 67 -88 117 -175 187 -124 98
-182 184 -213 313 -13 53 -16 163 -5 224 8 44 48 128 76 158 27 29 32 24 17
-13 -19 -47 -21 -55 -25 -143 -4 -91 14 -197 46 -268 30 -67 84 -127 185 -203
51 -38 104 -83 118 -101 l25 -32 8 59 c13 104 8 265 -9 321 -54 177 -178 331
-339 421 -45 26 -138 44 -179 35z m345 -358 c64 -68 88 -117 94 -195 l5 -65
-44 49 c-58 65 -83 103 -112 167 -33 74 -36 82 -43 137 l-6 47 29 -45 c17 -25
51 -67 77 -95z"/>
<path d="M3280 2954 c0 -12 0 -12 438 -15 156 -1 286 1 289 5 4 3 3 9 -1 13
-12 12 -726 9 -726 -3z"/>
<path d="M3385 2830 c3 -5 8 -10 11 -10 2 0 4 5 4 10 0 6 -5 10 -11 10 -5 0
-7 -4 -4 -10z"/>
<path d="M3410 2829 c0 -10 -1 -10 80 -11 34 0 63 1 65 4 2 2 34 1 70 -2 36
-3 71 -3 76 1 6 3 28 3 50 -1 22 -4 42 -4 44 1 3 4 19 4 35 -1 21 -6 30 -5 30
3 0 8 3 8 12 -1 7 -7 17 -8 30 -1 10 5 18 6 18 2 0 -12 99 -8 112 5 8 8 -76
11 -306 10 -174 0 -316 -5 -316 -9z"/>
<path d="M4045 1621 c-7 -12 -219 -153 -260 -174 -101 -50 -248 -93 -399 -115
-101 -14 -467 -5 -496 13 -3 2 -26 6 -50 10 -68 10 -123 22 -255 59 -154 42
-209 55 -213 51 -9 -9 138 -106 240 -157 221 -112 394 -153 633 -151 140 1
180 7 293 39 197 57 341 163 460 339 60 87 64 95 58 95 -3 0 -7 -4 -11 -9z"/>
</g>
</svg>
